0
SECTION
2
HEADER
9
$INSUNITS
70
4
9
$ACADVER
1
AC1014
9
$HANDSEED
5
FFFF
0
ENDSEC
0
SECTION
2
TABLES
0
TABLE
2
VPORT
5
8
100
AcDbSymbolTable
0
ENDTAB
0
TABLE
2
LTYPE
5
5
100
AcDbSymbolTable
0
LTYPE
5
14
100
AcDbSymbolTableRecord
100
AcDbLinetypeTableRecord
2
BYBLOCK
70
0
0
LTYPE
5
15
100
AcDbSymbolTableRecord
100
AcDbLinetypeTableRecord
2
BYLAYER
70
0
0
ENDTAB
0
TABLE
2
LAYER
5
2
100
AcDbSymbolTable
70
2
0
LAYER
5
50
100
AcDbSymbolTableRecord
100
AcDbLayerTableRecord
2
0
70
0
6
CONTINUOUS
0
ENDTAB
0
TABLE
2
STYLE
5
3
100
AcDbSymbolTable
70
1
0
STYLE
5
11
100
AcDbSymbolTableRecord
100
AcDbTextStyleTableRecord
2
STANDARD
70
0
0
ENDTAB
0
TABLE
2
VIEW
5
6
100
AcDbSymbolTable
70
0
0
ENDTAB
0
TABLE
2
UCS
5
7
100
AcDbSymbolTable
70
0
0
ENDTAB
0
TABLE
2
APPID
5
9
100
AcDbSymbolTable
70
2
0
APPID
5
12
100
AcDbSymbolTableRecord
100
AcDbRegAppTableRecord
2
ACAD
70
0
0
ENDTAB
0
TABLE
2
DIMSTYLE
5
A
100
AcDbSymbolTable
70
1
0
ENDTAB
0
TABLE
2
BLOCK_RECORD
5
1
100
AcDbSymbolTable
70
1
0
BLOCK_RECORD
5
1F
100
AcDbSymbolTableRecord
100
AcDbBlockTableRecord
2
*MODEL_SPACE
0
BLOCK_RECORD
5
1B
100
AcDbSymbolTableRecord
100
AcDbBlockTableRecord
2
*PAPER_SPACE
0
ENDTAB
0
ENDSEC
0
SECTION
2
BLOCKS
0
BLOCK
5
20
100
AcDbEntity
100
AcDbBlockBegin
2
*MODEL_SPACE
0
ENDBLK
5
21
100
AcDbEntity
100
AcDbBlockEnd
0
BLOCK
5
1C
100
AcDbEntity
100
AcDbBlockBegin
2
*PAPER_SPACE
0
ENDBLK
5
1D
100
AcDbEntity
100
AcDbBlockEnd
0
ENDSEC
0
SECTION
2
ENTITIES
0
LWPOLYLINE
5
100
100
AcDbEntity
8
0
100
AcDbPolyline
90
4
70
1
43
0.0
10
0
20
0
10
0
20
-400
10
-600
20
-400
10
-600
20
0
0
LWPOLYLINE
5
101
100
AcDbEntity
8
0
100
AcDbPolyline
90
104
70
1
43
0.0
10
-259.16207901753262
20
-390.47003477496912
10
-259.16207901753347
20
-367.27003477496913
10
-265.16207901753347
20
-367.27003477496936
10
-265.16207901753438
20
-344.07003477496937
10
-259.16207901753432
20
-344.07003477496909
10
-259.16207901753518
20
-320.87003477496916
10
-265.16207901753523
20
-320.87003477496927
10
-265.16207901753609
20
-297.67003477496928
10
-259.16207901753609
20
-297.67003477496905
10
-259.16207901753694
20
-274.47003477496906
10
-265.16207901753694
20
-274.47003477496924
10
-265.16207901753779
20
-251.27003477496925
10
-259.16207901753785
20
-251.27003477496902
10
-259.16207901753864
20
-228.07003477496903
10
-265.16207901753864
20
-228.07003477496923
10
-265.16207901753955
20
-204.87003477496921
10
-259.16207901753955
20
-204.87003477496899
10
-259.16207901754041
20
-181.670034774969
10
-265.16207901754046
20
-181.6700347749692
10
-265.16207901754126
20
-158.47003477496918
10
-259.16207901754126
20
-158.47003477496895
10
-259.16207901754211
20
-135.27003477496893
10
-265.16207901754217
20
-135.27003477496916
10
-265.16207901754302
20
-112.07003477496914
10
-259.16207901754302
20
-112.07003477496892
10
-259.16207901754382
20
-88.8700347749689
10
-265.16207901754387
20
-88.870034774969128
10
-265.16207901754478
20
-65.670034774969096
10
-259.16207901754478
20
-65.670034774968883
10
-259.16207901754558
20
-42.470034774968859
10
-251.4778684912298
20
-42.470034774968575
10
-251.47786849123005
20
-36.470034774968575
10
-237.79365796491422
20
-36.470034774968056
10
-237.79365796491402
20
-42.470034774968099
10
-224.10944743859824
20
-42.47003477496758
10
-224.10944743859844
20
-36.470034774967544
10
-210.42523691228266
20
-36.470034774967026
10
-210.4252369122824
20
-42.470034774967061
10
-196.74102638596662
20
-42.47003477496655
10
-196.74102638596682
20
-36.470034774966514
10
-183.05681585965104
20
-36.470034774965995
10
-183.05681585965078
20
-42.470034774966038
10
-169.372605333335
20
-42.470034774965519
10
-169.37260533333523
20
-36.470034774965519
10
-155.68839480701945
20
-36.470034774965001
10
-155.68839480701922
20
-42.470034774965001
10
-142.00418428070341
20
-42.470034774964489
10
-142.00418428070364
20
-36.470034774964489
10
-128.31997375438786
20
-36.47003477496397
10
-128.3199737543876
20
-42.470034774963977
10
-114.63576322807182
20
-42.470034774963459
10
-114.63576322807207
20
-36.470034774963459
10
-100.95155270175624
20
-36.47003477496294
10
-100.95155270175599
20
-42.470034774962983
10
-87.267342175440191
20
-42.470034774962464
10
-87.267342175440419
20
-36.470034774962429
10
-73.583131649124624
20
-36.47003477496191
10
-73.583131649124411
20
-42.470034774961945
10
-59.898921122808616
20
-42.470034774961434
10
-59.898921122808851
20
-36.470034774961398
10
-46.214710596493049
20
-36.47003477496088
10
-46.214710596492814
20
-42.470034774960922
10
-32.530500070177027
20
-42.470034774960403
10
-32.530500070177261
20
-36.470034774960403
10
-18.846289543861456
20
-36.470034774959885
10
-18.846289543861225
20
-42.470034774959885
10
-5.1620790175454303
20
-42.470034774959373
10
-5.1620790175324327
20
-390.47003477495957
10
-18.846289543848222
20
-390.47003477496014
10
-18.846289543847988
20
-396.47003477496008
10
-32.530500070163797
20
-396.47003477496065
10
-32.530500070164024
20
-390.47003477496054
10
-46.214710596479811
20
-390.47003477496111
10
-46.214710596479591
20
-396.47003477496116
10
-59.898921122795386
20
-396.47003477496162
10
-59.898921122795613
20
-390.47003477496162
10
-73.583131649111408
20
-390.47003477496213
10
-73.583131649111195
20
-396.47003477496219
10
-87.267342175426975
20
-396.47003477496264
10
-87.267342175427203
20
-390.4700347749627
10
-100.95155270174301
20
-390.4700347749631
10
-100.95155270174277
20
-396.47003477496321
10
-114.63576322805858
20
-396.47003477496361
10
-114.63576322805881
20
-390.47003477496366
10
-128.31997375437462
20
-390.47003477496418
10
-128.31997375437439
20
-396.47003477496418
10
-142.00418428069017
20
-396.47003477496469
10
-142.00418428069042
20
-390.47003477496469
10
-155.6883948070062
20
-390.47003477496526
10
-155.68839480700601
20
-396.4700347749652
10
-169.37260533332179
20
-396.47003477496577
10
-169.37260533332199
20
-390.47003477496565
10
-183.05681585963779
20
-390.47003477496622
10
-183.0568158596376
20
-396.47003477496628
10
-196.74102638595338
20
-396.47003477496673
10
-196.7410263859536
20
-390.47003477496673
10
-210.42523691226944
20
-390.47003477496725
10
-210.42523691226918
20
-396.4700347749673
10
-224.10944743858499
20
-396.47003477496776
10
-224.10944743858522
20
-390.47003477496781
10
-237.79365796490097
20
-390.47003477496821
10
-237.7936579649008
20
-396.47003477496833
10
-251.47786849121658
20
-396.47003477496872
10
-251.47786849121678
20
-390.47003477496878
0
CIRCLE
5
102
100
AcDbEntity
8
0
100
AcDbCircle
10
-364.09415924367988
20
-233.58919211168015
30
0
40
2.2499999999999969
0
CIRCLE
5
103
100
AcDbEntity
8
0
100
AcDbCircle
10
-471.59415924367977
20
-333.18919211168003
30
0
40
2.2499999999999925
0
CIRCLE
5
104
100
AcDbEntity
8
0
100
AcDbCircle
10
-459.59415924367977
20
-91.189192111680413
30
0
40
2.2499999999999925
0
LWPOLYLINE
5
105
100
AcDbEntity
8
0
100
AcDbPolyline
90
4
70
1
43
0.0
10
-273.19415924368013
20
-42.489192111680509
10
-273.19415924368008
20
-390.48919211167981
10
-497.19415924367968
20
-390.48919211167981
10
-497.19415924367974
20
-42.489192111680545
0
LWPOLYLINE
5
106
100
AcDbEntity
8
0
100
AcDbPolyline
90
46
70
1
43
0.0
10
-553.98426309496062
20
-183.31824587111626
10
-553.98426309495596
20
-35.818245871116474
10
-539.31759642828933
20
-35.818245871116979
10
-539.31759642828956
20
-41.818245871116943
10
-524.65092976162293
20
-41.818245871117405
10
-524.65092976162271
20
-35.818245871117426
10
-509.98426309495608
20
-35.818245871117902
10
-509.9842630949563
20
-41.818245871117895
10
-503.98426309495625
20
-41.818245871118037
10
-503.98426309495699
20
-65.018245871117998
10
-509.98426309495704
20
-65.018245871117813
10
-509.98426309495778
20
-88.218245871117773
10
-503.98426309495778
20
-88.218245871117972
10
-503.98426309495846
20
-111.41824587111793
10
-509.98426309495846
20
-111.41824587111776
10
-509.98426309495926
20
-134.61824587111772
10
-503.98426309495926
20
-134.61824587111792
10
-503.98426309495994
20
-157.81824587111788
10
-509.98426309495994
20
-157.81824587111768
10
-509.98426309496074
20
-181.01824587111767
10
-503.98426309496074
20
-181.01824587111787
10
-503.98426309496142
20
-204.21824587111783
10
-509.98426309496148
20
-204.2182458711176
10
-509.98426309496222
20
-227.41824587111762
10
-503.98426309496222
20
-227.41824587111779
10
-503.98426309496296
20
-250.61824587111775
10
-509.98426309496296
20
-250.61824587111758
10
-509.98426309496375
20
-273.81824587111754
10
-503.98426309496369
20
-273.81824587111771
10
-503.98426309496443
20
-297.0182458711177
10
-509.98426309496443
20
-297.01824587111753
10
-509.98426309496517
20
-320.21824587111746
10
-503.98426309496523
20
-320.21824587111769
10
-503.98426309496585
20
-343.41824587111768
10
-509.98426309496597
20
-343.41824587111745
10
-509.98426309496665
20
-366.61824587111738
10
-503.98426309496671
20
-366.61824587111767
10
-503.98426309496733
20
-389.8182458711176
10
-509.98426309496733
20
-389.81824587111737
10
-509.98426309496756
20
-395.81824587111748
10
-524.6509297616343
20
-395.81824587111691
10
-524.65092976163407
20
-389.81824587111697
10
-539.3175964283007
20
-389.81824587111646
10
-539.31759642830093
20
-395.81824587111646
10
-553.98426309496745
20
-395.81824587111601
10
-553.98426309496278
20
-248.31824587111618
42
0.99999999999999989
0
LWPOLYLINE
5
107
100
AcDbEntity
8
0
100
AcDbPolyline
90
12
70
1
43
0.0
10
-573.39452121284739
20
-389.77301187807456
10
-581.72785454618065
20
-389.77301187807416
10
-581.72785454618088
20
-395.77301187807421
10
-590.06118787951425
20
-395.77301187807382
10
-590.06118787949731
20
-35.773011878076098
10
-581.72785454616405
20
-35.773011878076495
10
-581.72785454616428
20
-41.773011878076467
10
-573.39452121283102
20
-41.773011878076858
10
-573.3945212128308
20
-35.773011878076879
10
-565.06118787949742
20
-35.77301187807727
10
-565.06118787951436
20
-395.77301187807495
10
-573.39452121284762
20
-395.7730118780745
0
LWPOLYLINE
5
108
100
AcDbEntity
8
0
100
AcDbPolyline
90
12
70
1
43
0.0
10
-362.37403122011551
20
-23.328894761888836
10
-362.37403122011551
20
-14.995561428555515
10
-368.37403122011551
20
-14.995561428555497
10
-368.37403122011551
20
-6.6622280952221509
10
-8.3740312201154836
20
-6.6622280952233304
10
-8.374031220115512
20
-14.995561428556671
10
-14.374031220115535
20
-14.995561428556652
10
-14.374031220115562
20
-23.328894761889973
10
-8.3740312201155547
20
-23.328894761889991
10
-8.3740312201155831
20
-31.662228095223341
10
-368.37403122011551
20
-31.662228095222158
10
-368.37403122011557
20
-23.328894761888819
0
ENDSEC
0
SECTION
2
OBJECTS
0
DICTIONARY
5
C
100
AcDbDictionary
3
ACAD_GROUP
350
D
3
ACAD_MLINESTYLE
350
17
0
DICTIONARY
5
D
100
AcDbDictionary
0
DICTIONARY
5
1A
330
C
100
AcDbDictionary
0
DICTIONARY
5
17
100
AcDbDictionary
0
ENDSEC
0
EOF
