0
SECTION
2
HEADER
9
$INSUNITS
70
4
9
$ACADVER
1
AC1014
9
$HANDSEED
5
FFFF
0
ENDSEC
0
SECTION
2
TABLES
0
TABLE
2
VPORT
5
8
100
AcDbSymbolTable
0
ENDTAB
0
TABLE
2
LTYPE
5
5
100
AcDbSymbolTable
0
LTYPE
5
14
100
AcDbSymbolTableRecord
100
AcDbLinetypeTableRecord
2
BYBLOCK
70
0
0
LTYPE
5
15
100
AcDbSymbolTableRecord
100
AcDbLinetypeTableRecord
2
BYLAYER
70
0
0
ENDTAB
0
TABLE
2
LAYER
5
2
100
AcDbSymbolTable
70
2
0
LAYER
5
50
100
AcDbSymbolTableRecord
100
AcDbLayerTableRecord
2
0
70
0
6
CONTINUOUS
0
ENDTAB
0
TABLE
2
STYLE
5
3
100
AcDbSymbolTable
70
1
0
STYLE
5
11
100
AcDbSymbolTableRecord
100
AcDbTextStyleTableRecord
2
STANDARD
70
0
0
ENDTAB
0
TABLE
2
VIEW
5
6
100
AcDbSymbolTable
70
0
0
ENDTAB
0
TABLE
2
UCS
5
7
100
AcDbSymbolTable
70
0
0
ENDTAB
0
TABLE
2
APPID
5
9
100
AcDbSymbolTable
70
2
0
APPID
5
12
100
AcDbSymbolTableRecord
100
AcDbRegAppTableRecord
2
ACAD
70
0
0
ENDTAB
0
TABLE
2
DIMSTYLE
5
A
100
AcDbSymbolTable
70
1
0
ENDTAB
0
TABLE
2
BLOCK_RECORD
5
1
100
AcDbSymbolTable
70
1
0
BLOCK_RECORD
5
1F
100
AcDbSymbolTableRecord
100
AcDbBlockTableRecord
2
*MODEL_SPACE
0
BLOCK_RECORD
5
1B
100
AcDbSymbolTableRecord
100
AcDbBlockTableRecord
2
*PAPER_SPACE
0
ENDTAB
0
ENDSEC
0
SECTION
2
BLOCKS
0
BLOCK
5
20
100
AcDbEntity
100
AcDbBlockBegin
2
*MODEL_SPACE
0
ENDBLK
5
21
100
AcDbEntity
100
AcDbBlockEnd
0
BLOCK
5
1C
100
AcDbEntity
100
AcDbBlockBegin
2
*PAPER_SPACE
0
ENDBLK
5
1D
100
AcDbEntity
100
AcDbBlockEnd
0
ENDSEC
0
SECTION
2
ENTITIES
0
LWPOLYLINE
5
100
100
AcDbEntity
8
0
100
AcDbPolyline
90
4
70
1
43
0.0
10
0
20
425
10
0
20
25
10
-600
20
25
10
-600
20
425
0
CIRCLE
5
101
100
AcDbEntity
8
0
100
AcDbCircle
10
-276.22703597597075
20
156.65485687955416
30
0
40
1.4999999999999978
0
CIRCLE
5
102
100
AcDbEntity
8
0
100
AcDbCircle
10
-276.22703597597075
20
96.654856879554259
30
0
40
1.5000000000000011
0
CIRCLE
5
103
100
AcDbEntity
8
0
100
AcDbCircle
10
-276.22703597597075
20
256.65485687955402
30
0
40
1.5000000000000011
0
CIRCLE
5
104
100
AcDbEntity
8
0
100
AcDbCircle
10
-281.72703597597069
20
41.404856879554721
30
0
40
1.5000000000000011
0
LWPOLYLINE
5
105
100
AcDbEntity
8
0
100
AcDbPolyline
90
4
70
1
43
0.0
10
-173.22703597597197
20
39.154856879554401
10
-173.22703597597155
20
47.48819021288773
10
-179.22703597597149
20
47.488190212888014
10
-179.22703597597194
20
39.154856879554686
0
LWPOLYLINE
5
106
100
AcDbEntity
8
0
100
AcDbPolyline
90
4
70
1
43
0.0
10
-179.22703597597109
20
55.821523546221329
10
-173.22703597597112
20
55.82152354622103
10
-173.22703597597067
20
64.154856879554359
10
-179.22703597597064
20
64.154856879554657
0
LWPOLYLINE
5
107
100
AcDbEntity
8
0
100
AcDbPolyline
90
56
70
1
43
0.0
10
-173.72703597597081
20
283.65485687955396
10
-173.72703597597081
20
289.6548568795539
10
-163.72703597597081
20
289.6548568795539
10
-163.72703597597081
20
29.654856879554359
10
-313.72703597597058
20
29.654856879554362
10
-313.72703597597058
20
43.339067405870125
10
-307.72703597597058
20
43.339067405870125
10
-307.72703597597058
20
57.023277932185898
10
-313.72703597597058
20
57.023277932185877
10
-313.72703597597058
20
70.707488458501643
10
-307.72703597597058
20
70.707488458501643
10
-307.72703597597058
20
84.391698984817424
10
-313.72703597597058
20
84.391698984817424
10
-313.72703597597058
20
98.07590951113319
10
-307.72703597597058
20
98.075909511133176
10
-307.72703597597058
20
111.76012003744894
10
-313.72703597597058
20
111.76012003744894
10
-313.72703597597058
20
125.44433056376471
10
-307.72703597597058
20
125.44433056376471
10
-307.72703597597058
20
139.12854109008049
10
-313.72703597597058
20
139.12854109008049
10
-313.72703597597058
20
152.81275161639627
10
-307.72703597597058
20
152.81275161639624
10
-307.72703597597058
20
166.49696214271202
10
-313.72703597597058
20
166.49696214271202
10
-313.72703597597058
20
180.18117266902777
10
-307.72703597597058
20
180.1811726690278
10
-307.72703597597058
20
193.86538319534355
10
-313.72703597597058
20
193.86538319534355
10
-313.72703597597058
20
207.54959372165931
10
-307.72703597597058
20
207.54959372165931
10
-307.72703597597058
20
221.23380424797512
10
-313.72703597597058
20
221.23380424797512
10
-313.72703597597058
20
234.91801477429084
10
-307.72703597597058
20
234.9180147742909
10
-307.72703597597058
20
248.60222530060665
10
-313.72703597597058
20
248.60222530060665
10
-313.72703597597058
20
262.2864358269224
10
-307.72703597597058
20
262.28643582692246
10
-307.72703597597058
20
275.97064635323818
10
-313.72703597597058
20
275.97064635323818
10
-313.72703597597058
20
289.6548568795539
10
-307.72703597597058
20
289.6548568795539
10
-307.72703597597058
20
283.6548568795539
10
-293.06036930930395
20
283.65485687955396
10
-293.06036930930395
20
289.6548568795539
10
-278.39370264263727
20
289.6548568795539
10
-278.39370264263732
20
283.6548568795539
10
-263.72703597597069
20
283.65485687955396
10
-263.72703597597064
20
289.6548568795539
10
-198.72703597597075
20
289.6548568795539
10
-198.72703597597078
20
283.6548568795539
10
-190.39370264263744
20
283.65485687955396
10
-190.39370264263744
20
289.6548568795539
10
-182.06036930930412
20
289.6548568795539
10
-182.06036930930412
20
283.6548568795539
0
CIRCLE
5
108
100
AcDbEntity
8
0
100
AcDbCircle
10
-118.66052642302904
20
163.26660711969055
30
0
40
1.4999999999999947
0
CIRCLE
5
109
100
AcDbEntity
8
0
100
AcDbCircle
10
-118.66052642302913
20
223.26660711969032
30
0
40
1.499999999999998
0
CIRCLE
5
110
100
AcDbEntity
8
0
100
AcDbCircle
10
-118.66052642302887
20
63.266607119690903
30
0
40
1.499999999999998
0
CIRCLE
5
111
100
AcDbEntity
8
0
100
AcDbCircle
10
-124.16052642302918
20
278.51660711968975
30
0
40
1.499999999999998
0
LWPOLYLINE
5
112
100
AcDbEntity
8
0
100
AcDbPolyline
90
4
70
1
43
0.0
10
-21.660526423030181
20
272.43327378635661
10
-15.660526423030205
20
272.43327378635689
10
-15.660526423030653
20
280.76660711969021
10
-21.660526423030625
20
280.76660711968992
0
LWPOLYLINE
5
113
100
AcDbEntity
8
0
100
AcDbPolyline
90
4
70
1
43
0.0
10
-21.66052642302931
20
255.76660711969001
10
-15.660526423029335
20
255.76660711969032
10
-15.660526423029765
20
264.09994045302363
10
-21.660526423029754
20
264.09994045302335
0
LWPOLYLINE
5
114
100
AcDbEntity
8
0
100
AcDbPolyline
90
56
70
1
43
0.0
10
-16.160526423029104
20
30.266607119691201
10
-16.160526423029111
20
36.266607119691173
10
-24.493859756362404
20
36.266607119691152
10
-24.493859756362394
20
30.266607119691194
10
-32.82719308969569
20
30.266607119691184
10
-32.827193089695697
20
36.266607119691152
10
-41.160526423028998
20
36.266607119691137
10
-41.160526423028998
20
30.266607119691162
10
-106.16052642302876
20
30.266607119691059
10
-106.16052642302877
20
36.266607119691038
10
-120.82719308969538
20
36.26660711969101
10
-120.82719308969537
20
30.266607119691024
10
-135.49385975636199
20
30.266607119691006
10
-135.49385975636201
20
36.266607119690988
10
-150.16052642302861
20
36.26660711969096
10
-150.16052642302861
20
30.266607119690974
10
-156.16052642302859
20
30.266607119690967
10
-156.16052642302859
20
43.950817646006712
10
-150.16052642302864
20
43.950817646006719
10
-150.16052642302864
20
57.635028172322443
10
-156.16052642302864
20
57.635028172322436
10
-156.16052642302864
20
71.319238698638173
10
-150.16052642302867
20
71.319238698638202
10
-150.1605264230287
20
85.003449224953954
10
-156.16052642302867
20
85.003449224953926
10
-156.16052642302867
20
98.687659751269649
10
-150.16052642302873
20
98.687659751269678
10
-150.16052642302873
20
112.37187027758543
10
-156.16052642302873
20
112.37187027758543
10
-156.16052642302873
20
126.05608080390114
10
-150.16052642302876
20
126.05608080390115
10
-150.16052642302878
20
139.74029133021691
10
-156.16052642302876
20
139.74029133021691
10
-156.16052642302878
20
153.4245018565326
10
-150.16052642302881
20
153.42450185653266
10
-150.16052642302884
20
167.10871238284838
10
-156.16052642302881
20
167.10871238284835
10
-156.16052642302884
20
180.7929229091641
10
-150.16052642302884
20
180.79292290916413
10
-150.16052642302887
20
194.47713343547986
10
-156.16052642302884
20
194.47713343547986
10
-156.16052642302887
20
208.16134396179561
10
-150.1605264230289
20
208.16134396179561
10
-150.16052642302893
20
221.8455544881113
10
-156.1605264230289
20
221.8455544881113
10
-156.16052642302893
20
235.52976501442708
10
-150.16052642302893
20
235.52976501442708
10
-150.16052642302895
20
249.21397554074281
10
-156.16052642302893
20
249.21397554074278
10
-156.16052642302895
20
262.89818606705859
10
-150.16052642302898
20
262.89818606705853
10
-150.16052642302901
20
276.58239659337426
10
-156.16052642302898
20
276.58239659337426
10
-156.16052642302901
20
290.26660711968998
10
-6.1605264230295473
20
290.26660711969026
10
-6.1605264230291299
20
30.266607119691216
0
CIRCLE
5
115
100
AcDbEntity
8
0
100
AcDbCircle
10
-328.53303481184184
20
156.86727288162439
30
0
40
1.5000000000000002
0
CIRCLE
5
116
100
AcDbEntity
8
0
100
AcDbCircle
10
-328.53303481184184
20
96.867272881624388
30
0
40
1.5000000000000036
0
CIRCLE
5
117
100
AcDbEntity
8
0
100
AcDbCircle
10
-328.53303481184184
20
256.86727288162439
30
0
40
1.5000000000000036
0
CIRCLE
5
118
100
AcDbEntity
8
0
100
AcDbCircle
10
-334.03303481184184
20
41.617272881624757
30
0
40
1.5000000000000036
0
LWPOLYLINE
5
119
100
AcDbEntity
8
0
100
AcDbPolyline
90
7
70
1
43
0.0
10
-347.03303481184173
20
53.367272881624395
42
-0.41421356237309664
10
-340.53303481184173
20
59.867272881624402
10
-336.03303481184179
20
59.86727288162438
10
-336.03303481184179
20
283.86727288162439
10
-321.03303481184179
20
283.86727288162439
10
-321.03303481184179
20
29.867272881624398
10
-347.03303481184179
20
29.86727288162438
0
CIRCLE
5
120
100
AcDbEntity
8
0
100
AcDbCircle
10
-359.08476133161014
20
158.53248645429366
30
0
40
1.4999999999999958
0
CIRCLE
5
121
100
AcDbEntity
8
0
100
AcDbCircle
10
-359.08476133161224
20
218.53248645429346
30
0
40
1.4999999999999991
0
CIRCLE
5
122
100
AcDbEntity
8
0
100
AcDbCircle
10
-359.08476133160667
20
58.532486454293945
30
0
40
1.4999999999999991
0
CIRCLE
5
123
100
AcDbEntity
8
0
100
AcDbCircle
10
-364.58476133161412
20
273.78248645429272
30
0
40
1.4999999999999991
0
LWPOLYLINE
5
124
100
AcDbEntity
8
0
100
AcDbPolyline
90
7
70
1
43
0.0
10
-371.08476133161332
20
255.53248645429289
42
-0.41421356237309986
10
-377.58476133161361
20
262.03248645429267
10
-377.58476133161435
20
285.53248645429267
10
-351.58476133161446
20
285.53248645429358
10
-351.58476133160576
20
31.532486454294304
10
-366.58476133160559
20
31.532486454293824
10
-366.58476133161344
20
255.53248645429309
0
ENDSEC
0
SECTION
2
OBJECTS
0
DICTIONARY
5
C
100
AcDbDictionary
3
ACAD_GROUP
350
D
3
ACAD_MLINESTYLE
350
17
0
DICTIONARY
5
D
100
AcDbDictionary
0
DICTIONARY
5
1A
330
C
100
AcDbDictionary
0
DICTIONARY
5
17
100
AcDbDictionary
0
ENDSEC
0
EOF
