<?xml version="1.0" encoding="UTF-8" standalone="no"?>
<!-- Created with Inkscape (http://www.inkscape.org/) -->

<svg
   xmlns:dc="http://purl.org/dc/elements/1.1/"
   xmlns:cc="http://creativecommons.org/ns#"
   xmlns:rdf="http://www.w3.org/1999/02/22-rdf-syntax-ns#"
   xmlns:svg="http://www.w3.org/2000/svg"
   xmlns="http://www.w3.org/2000/svg"
   xmlns:sodipodi="http://sodipodi.sourceforge.net/DTD/sodipodi-0.dtd"
   xmlns:inkscape="http://www.inkscape.org/namespaces/inkscape"
   width="585.1637mm"
   height="360.96158mm"
   viewBox="0 0 585.1637 360.96158"
   version="1.1"
   id="svg8"
   inkscape:version="0.92.2 (5c3e80d, 2017-08-06)"
   sodipodi:docname="stack_a.svg">
  <defs
     id="defs2">
    <marker
       style="overflow:visible"
       refY="0"
       refX="0"
       orient="auto"
       id="DistanceX">
      <path
         id="path3701"
         style="stroke:#000000;stroke-width:0.5"
         d="M 3,-3 -3,3 M 0,-5 V 5"
         inkscape:connector-curvature="0" />
    </marker>
    <pattern
       y="0"
       x="0"
       width="8"
       patternUnits="userSpaceOnUse"
       id="Hatch"
       height="8">
      <path
         id="path3704"
         stroke-width="0.25"
         stroke="#000000"
         linecap="square"
         d="M8 4 l-4,4" />
      <path
         id="path3706"
         stroke-width="0.25"
         stroke="#000000"
         linecap="square"
         d="M6 2 l-4,4" />
      <path
         id="path3708"
         stroke-width="0.25"
         stroke="#000000"
         linecap="square"
         d="M4 0 l-4,4" />
    </pattern>
    <symbol
       id="*MODEL_SPACE" />
    <symbol
       id="*PAPER_SPACE" />
  </defs>
  <sodipodi:namedview
     id="base"
     pagecolor="#ffffff"
     bordercolor="#666666"
     borderopacity="1.0"
     inkscape:pageopacity="0.0"
     inkscape:pageshadow="2"
     inkscape:zoom="0.175"
     inkscape:cx="512.31097"
     inkscape:cy="338.51474"
     inkscape:document-units="mm"
     inkscape:current-layer="layer1"
     showgrid="false"
     fit-margin-top="0"
     fit-margin-left="0"
     fit-margin-right="0"
     fit-margin-bottom="0"
     inkscape:window-width="1920"
     inkscape:window-height="1017"
     inkscape:window-x="-8"
     inkscape:window-y="-8"
     inkscape:window-maximized="1" />
  <metadata
     id="metadata5">
    <rdf:RDF>
      <cc:Work
         rdf:about="">
        <dc:format>image/svg+xml</dc:format>
        <dc:type
           rdf:resource="http://purl.org/dc/dcmitype/StillImage" />
        <dc:title></dc:title>
      </cc:Work>
    </rdf:RDF>
  </metadata>
  <g
     inkscape:label="Layer 1"
     inkscape:groupmode="layer"
     id="layer1"
     transform="translate(182.4615,16.095306)">
    <path
       inkscape:connector-curvature="0"
       d="M 148.56988,338.73398 V 315.534 h -6 v -23.19999 h 6 v -23.20002 h -6 V 245.934 h 6 v -23.20001 h -6 V 199.534 h 6 v -23.19999 h -6 v -23.20002 h 6 V 129.934 h -6 v -23.20001 h 6 V 83.533997 h -6 V 60.334008 h 6 V 37.133992 h -6 V 13.934003 h 6 V -9.2659868 h 7.68422 v -6.0000092 h 13.68421 v 6.0000092 h 13.68421 v -6.0000092 h 13.68421 v 6.0000092 h 13.68421 v -6.0000092 h 13.68421 v 6.0000092 h 13.68421 v -6.0000092 h 13.68421 v 6.0000092 h 13.68421 v -6.0000092 h 13.68421 v 6.0000092 h 13.68421 v -6.0000092 h 13.68421 v 6.0000092 h 13.68421 v -6.0000092 h 13.68421 v 6.0000092 h 13.68421 v -6.0000092 h 13.68421 v 6.0000092 h 13.68421 v -6.0000092 h 13.68421 v 6.0000092 h 13.68421 V 338.73398 h -13.68421 v 6.00001 h -13.68421 v -6.00001 h -13.68421 v 6.00001 h -13.68421 v -6.00001 h -13.68421 v 6.00001 h -13.68421 v -6.00001 h -13.68421 v 6.00001 H 293.0962 v -6.00001 h -13.68421 v 6.00001 h -13.68421 v -6.00001 h -13.68421 v 6.00001 h -13.68421 v -6.00001 h -13.68421 v 6.00001 h -13.68421 v -6.00001 h -13.68421 v 6.00001 h -13.68421 v -6.00001 h -13.68421 v 6.00001 H 156.2541 v -6.00001 z"
       style="fill:none;stroke:#ff0000;stroke-width:0.1;stroke-miterlimit:4;stroke-dasharray:none"
       id="path3717" />
    <path
       inkscape:connector-curvature="0"
       d="m 45.887798,181.85316 a 2.25,2.25 0 1 0 -4.49998,0 2.25,2.25 0 1 0 4.49998,0 z"
       style="fill:none;stroke:#ff0000;stroke-width:0.1;stroke-miterlimit:4;stroke-dasharray:none"
       id="path3719" />
    <path
       inkscape:connector-curvature="0"
       d="m -61.612197,281.45315 a 2.2500035,2.2500035 0 1 0 -4.500007,0 2.2500035,2.2500035 0 1 0 4.500007,0 z"
       style="fill:none;stroke:#ff0000;stroke-width:0.1;stroke-miterlimit:4;stroke-dasharray:none"
       id="path3721" />
    <path
       inkscape:connector-curvature="0"
       d="m -49.612206,39.453171 a 2.25,2.25 0 1 0 -4.49998,0 2.25,2.25 0 1 0 4.49998,0 z"
       style="fill:none;stroke:#ff0000;stroke-width:0.1;stroke-miterlimit:4;stroke-dasharray:none"
       id="path3723" />
    <path
       inkscape:connector-curvature="0"
       d="M 134.53779,-9.2468309 V 338.75314 H -89.462186 V -9.2468309 Z"
       style="fill:none;stroke:#ff0000;stroke-width:0.1;stroke-miterlimit:4;stroke-dasharray:none"
       id="path3725" />
    <path
       inkscape:connector-curvature="0"
       d="M -146.2523,131.5822 V -15.917797 h 14.66668 v 6.0000092 h 14.66667 v -6.0000092 h 14.66665 v 6.0000092 h 6.000006 V 13.282201 h -6.000006 v 23.200016 h 6.000006 v 23.19999 h -6.000006 v 23.200015 h 6.000006 v 23.199988 h -6.000006 v 23.19999 h 6.000006 v 23.20002 h -6.000006 v 23.19999 h 6.000006 v 23.20001 h -6.000006 v 23.19999 h 6.000006 v 23.19999 h -6.000006 v 23.20002 h 6.000006 v 23.19999 h -6.000006 v 23.19998 h 6.000006 v 23.20002 h -6.000006 v 6.00001 h -14.66665 v -6.00001 h -14.66667 v 6.00001 H -146.2523 V 196.5822 a 32.500001,32.500001 0 0 0 0,-65 z"
       style="fill:none;stroke:#ff0000;stroke-width:0.1;stroke-miterlimit:4;stroke-dasharray:none"
       id="path3727" />
    <path
       inkscape:connector-curvature="0"
       d="m -165.66256,338.03697 h -8.33334 v 6.00001 h -8.33331 V -15.963014 h 8.33331 v 5.9999824 h 8.33334 v -5.9999824 h 8.33335 V 344.03698 h -8.33335 z"
       style="fill:none;stroke:#ff0000;stroke-width:0.1;stroke-miterlimit:4;stroke-dasharray:none"
       id="path3729" />
  </g>
</svg>
